<svg data-v-423bf9ae="" xmlns="http://www.w3.org/2000/svg" viewBox="0 0 593 90" class="iconLeft"><!----><!----><!----><g data-v-423bf9ae="" id="efdbe11d-837d-45aa-8177-e807e9888825" fill="#000000" transform="matrix(5.44997732156018,0,0,5.44997732156018,167.610795694694,14.65512651736983)"><path d="M9.55 10.16L9.55 10.16L9.55 4.24C9.55 3.99 9.34 3.78 9.07 3.78C8.90 3.78 8.76 3.86 8.68 3.99L6.27 7.42L3.89 3.98C3.74 3.77 3.43 3.71 3.22 3.86C3.09 3.95 3.02 4.10 3.02 4.24L3.02 4.24L3.02 10.16C3.02 10.43 3.23 10.64 3.49 10.64C3.77 10.64 3.98 10.43 3.98 10.16L3.98 5.75L5.89 8.51C5.92 8.55 5.96 8.60 6.01 8.64C6.22 8.78 6.52 8.72 6.68 8.51L8.60 5.75L8.60 10.16C8.60 10.43 8.81 10.64 9.07 10.64C9.34 10.64 9.55 10.43 9.55 10.16ZM2.07 10.16L2.07 10.16L2.07 0.67C2.07 0.41 1.86 0.20 1.60 0.20C1.33 0.20 1.12 0.41 1.12 0.67L1.12 10.16C1.12 10.43 1.33 10.64 1.60 10.64C1.86 10.64 2.07 10.43 2.07 10.16ZM11.45 10.16L11.45 10.16L11.45 0.67C11.45 0.41 11.24 0.20 10.96 0.20C10.71 0.20 10.50 0.41 10.50 0.67L10.50 10.16C10.50 10.43 10.71 10.64 10.96 10.64C11.24 10.64 11.45 10.43 11.45 10.16ZM8.86 0.39L8.86 0.39L6.27 4.10L3.71 0.39C3.56 0.18 3.25 0.13 3.04 0.28C2.83 0.43 2.79 0.73 2.93 0.94L5.89 5.18C5.92 5.24 5.96 5.28 6.01 5.31C6.22 5.47 6.52 5.42 6.68 5.19L9.65 0.94C9.79 0.73 9.74 0.43 9.53 0.28C9.31 0.13 9.02 0.18 8.86 0.39ZM17.71 5.03L17.71 5.03C18.48 5.03 19.12 4.42 19.12 3.64C19.12 2.93 18.56 2.21 17.71 2.21L16.04 2.21C15.43 2.21 15.43 3.15 16.04 3.15L17.71 3.15C17.98 3.15 18.20 3.35 18.20 3.63C18.20 4.17 17.68 4.10 17.25 4.10C16.49 4.10 16.52 4.98 17.25 5.03C17.40 5.04 17.58 5.03 17.71 5.03ZM18.58 9.90L18.58 9.90L16.44 6.83C16.17 6.48 15.58 6.62 15.58 7.13L15.58 10.18C15.58 10.79 16.52 10.79 16.52 10.18L16.52 8.58L17.81 10.44C18.17 10.95 18.93 10.40 18.58 9.90ZM14.64 10.18L14.64 10.18L14.64 1.29L17.86 1.29C18.49 1.29 19.07 1.54 19.49 1.96C20.93 3.42 19.92 5.96 17.86 5.96C17.51 5.96 17.23 6.37 17.51 6.73L20.10 10.44C20.44 10.95 21.21 10.40 20.86 9.90L18.69 6.79C19.25 6.65 19.75 6.34 20.16 5.94C22.18 3.86 20.73 0.35 17.86 0.35L14.18 0.35C13.93 0.35 13.71 0.56 13.71 0.81L13.71 10.18C13.71 10.79 14.64 10.79 14.64 10.18ZM23.02 7.76C22.16 7.76 21.53 8.40 21.53 9.24C21.53 10.07 22.16 10.71 23.02 10.71C23.87 10.71 24.49 10.05 24.49 9.24C24.49 8.40 23.87 7.76 23.02 7.76ZM23.02 8.58C23.42 8.58 23.67 8.85 23.67 9.24C23.67 9.62 23.42 9.88 23.02 9.88C22.62 9.88 22.34 9.63 22.34 9.24C22.34 8.85 22.62 8.58 23.02 8.58ZM36.05 2.23L36.05 2.23L33.70 2.23C33.45 2.23 33.24 2.44 33.24 2.70L33.24 10.16C33.24 10.43 33.45 10.64 33.70 10.64C33.96 10.64 34.17 10.43 34.17 10.16L34.17 3.15L36.05 3.15C36.30 3.15 36.50 2.95 36.50 2.70C36.50 2.44 36.30 2.23 36.05 2.23ZM29.51 1.29L29.51 1.29L36.05 1.29C36.30 1.29 36.50 1.08 36.50 0.83C36.50 0.56 36.30 0.36 36.05 0.36L29.51 0.36C29.25 0.36 29.04 0.56 29.04 0.83C29.04 1.08 29.25 1.29 29.51 1.29ZM29.51 3.15L29.51 3.15L31.36 3.15L31.36 10.16C31.36 10.43 31.58 10.64 31.84 10.64C32.10 10.64 32.31 10.43 32.31 10.16L32.31 2.70C32.31 2.44 32.10 2.23 31.84 2.23L29.51 2.23C29.25 2.23 29.04 2.44 29.04 2.70C29.04 2.95 29.25 3.15 29.51 3.15ZM42.01 5.03L42.01 5.03C42.78 5.03 43.43 4.42 43.43 3.64C43.43 2.93 42.87 2.21 42.01 2.21L40.35 2.21C39.73 2.21 39.73 3.15 40.35 3.15L42.01 3.15C42.28 3.15 42.50 3.35 42.50 3.63C42.50 4.17 41.99 4.10 41.55 4.10C40.80 4.10 40.82 4.98 41.55 5.03C41.71 5.04 41.89 5.03 42.01 5.03ZM42.88 9.90L42.88 9.90L40.74 6.83C40.47 6.48 39.89 6.62 39.89 7.13L39.89 10.18C39.89 10.79 40.82 10.79 40.82 10.18L40.82 8.58L42.11 10.44C42.48 10.95 43.23 10.40 42.88 9.90ZM38.95 10.18L38.95 10.18L38.95 1.29L42.17 1.29C42.80 1.29 43.37 1.54 43.79 1.96C45.23 3.42 44.23 5.96 42.17 5.96C41.82 5.96 41.54 6.37 41.82 6.73L44.41 10.44C44.74 10.95 45.51 10.40 45.16 9.90L42.99 6.79C43.55 6.65 44.06 6.34 44.46 5.94C46.48 3.86 45.04 0.35 42.17 0.35L38.49 0.35C38.23 0.35 38.01 0.56 38.01 0.81L38.01 10.18C38.01 10.79 38.95 10.79 38.95 10.18ZM49.45 7.84L49.45 7.84L50.81 7.84C51.07 7.84 51.30 7.63 51.30 7.36C51.30 7.29 51.28 7.24 51.25 7.18L50.57 5.50C50.47 5.28 50.20 5.17 49.95 5.26C49.73 5.35 49.62 5.63 49.70 5.87L50.12 6.90L49.45 6.90C49.20 6.90 48.99 7.10 48.99 7.36C48.99 7.63 49.20 7.84 49.45 7.84ZM48.76 10.26L48.76 10.26L49.00 9.72L51.27 9.72L51.49 10.26C51.59 10.51 51.87 10.61 52.11 10.53C52.35 10.42 52.44 10.15 52.36 9.91L52.02 9.10C51.97 8.92 51.79 8.76 51.58 8.76L48.68 8.76L48.68 8.76C48.51 8.76 48.33 8.89 48.24 9.06L47.91 9.91C47.81 10.15 47.92 10.42 48.16 10.53C48.41 10.61 48.68 10.50 48.76 10.26ZM46.76 10.26L46.76 10.26L50.13 1.76L53.51 10.26C53.61 10.50 53.89 10.61 54.12 10.53C54.36 10.42 54.47 10.15 54.38 9.91L50.57 0.36C50.53 0.25 50.44 0.14 50.30 0.10C50.08 0 49.80 0.11 49.70 0.36L45.88 9.91C45.79 10.15 45.92 10.42 46.14 10.53C46.38 10.61 46.65 10.50 46.76 10.26ZM55.86 0.99L55.86 0.99L57.72 5.60C57.89 5.98 58.44 5.98 58.59 5.60L60.48 0.99C60.56 0.74 60.45 0.49 60.21 0.38C59.98 0.29 59.70 0.41 59.61 0.64L58.17 4.19L56.71 0.64C56.62 0.41 56.35 0.29 56.10 0.38C55.87 0.49 55.75 0.74 55.86 0.99ZM61.73 0.64L61.73 0.64L58.17 9.38L54.60 0.64C54.50 0.41 54.24 0.29 54.00 0.38C53.75 0.49 53.65 0.74 53.73 0.99L57.72 10.78C57.89 11.17 58.42 11.17 58.59 10.78L62.58 0.99C62.68 0.74 62.57 0.49 62.33 0.38C62.10 0.29 61.82 0.41 61.73 0.64ZM69.15 2.23L69.15 2.23L66.18 2.23C65.91 2.23 65.70 2.42 65.70 2.69L65.70 4.56C65.70 4.82 65.91 5.03 66.18 5.03L68.28 5.03C68.54 5.03 68.75 4.82 68.75 4.56C68.75 4.30 68.54 4.09 68.28 4.09L66.64 4.09L66.64 3.15L69.15 3.15C69.41 3.15 69.62 2.94 69.62 2.69C69.62 2.42 69.41 2.23 69.15 2.23ZM68.28 5.96L68.28 5.96L66.18 5.96C65.91 5.96 65.70 6.17 65.70 6.43L65.70 8.30C65.70 8.55 65.91 8.76 66.18 8.76L69.15 8.76C69.41 8.76 69.62 8.55 69.62 8.30C69.62 8.04 69.41 7.83 69.15 7.83L66.64 7.83L66.64 6.90L68.28 6.90C68.54 6.90 68.75 6.69 68.75 6.43C68.75 6.17 68.54 5.96 68.28 5.96ZM69.15 9.70L69.15 9.70L64.78 9.70L64.78 1.29L69.15 1.29C69.41 1.29 69.62 1.08 69.62 0.81C69.62 0.56 69.41 0.35 69.15 0.35L64.30 0.35C64.05 0.35 63.84 0.56 63.84 0.81L63.84 10.18C63.84 10.43 64.05 10.64 64.30 10.64L69.15 10.64C69.41 10.64 69.62 10.43 69.62 10.18C69.62 9.91 69.41 9.70 69.15 9.70ZM77.42 9.70L77.42 9.70L72.44 9.70L72.44 0.81C72.44 0.56 72.23 0.35 71.97 0.35C71.71 0.35 71.50 0.56 71.50 0.81L71.50 10.18C71.50 10.43 71.71 10.64 71.97 10.64L77.42 10.64C77.69 10.64 77.88 10.43 77.88 10.18C77.88 9.91 77.69 9.70 77.42 9.70ZM73.37 0.81L73.37 0.81L73.37 8.30C73.37 8.55 73.58 8.76 73.84 8.76L77.42 8.76C77.69 8.76 77.88 8.55 77.88 8.30C77.88 8.04 77.69 7.83 77.42 7.83L74.31 7.83L74.31 0.81C74.31 0.56 74.10 0.35 73.84 0.35C73.58 0.35 73.37 0.56 73.37 0.81Z"></path></g><defs data-v-423bf9ae=""><linearGradient data-v-423bf9ae="" gradientTransform="rotate(25)" id="cc0d02b2-5858-4ef2-960d-09cbdab13081" x1="0%" y1="0%" x2="100%" y2="0%"><stop data-v-423bf9ae="" offset="0%" style="stop-color: rgb(0, 102, 120); stop-opacity: 1;"></stop><stop data-v-423bf9ae="" offset="100%" style="stop-color: rgb(79, 168, 255); stop-opacity: 1;"></stop></linearGradient></defs><g data-v-423bf9ae="" id="5063bfd1-7fa0-4798-9fd5-8531453afb29" transform="matrix(4.803586662404586,0,0,4.803586662404586,0.14261340152661717,-31.22538662899096)" stroke="none" fill="url(#cc0d02b2-5858-4ef2-960d-09cbdab13081)"><path d="M16 19.586l7.496-12.954H8.504zM7.496 12.414L0 25.368h14.992zM24.504 12.414l-7.496 12.954H32z"></path></g><!----></svg>